# xmcd CD database file
#
# Track frame offsets:
#	150
#	15384
#	29109
#	43790
#	56783
#	69829
#	81540
#	94836
#	109320
#	122805
#	136974
#	152250
#	164386
#	177021
#	190619
#	201185
#	213491
#	226600
#	239779
#
# Disc length: 3345 seconds
#
# Revision: 0
# Processed by: cddbd v1.5.2PL0 Copyright (c) Steve Scherf et al.
# Submitted via: CDex 1.70beta2
#
DISCID=060d0f13
DTITLE=Howard McGhee - Bebop Story Vol 1 1945 CD 054
DYEAR=2008
DGENRE=Jazz
TTITLE0=Deep Meditation
TTITLE1=Intersection
TTITLE2=Lifestream
TTITLE3=Mop-Mop
TTITLE4=Stardust
TTITLE5=Mad Hype
TTITLE6=Rummage Bounce
TTITLE7=Playboy Blues
TTITLE8=Around The Clock Part 1
TTITLE9=Around The Clock Part 2
TTITLE10=Gee I'm Lonesome
TTITLE11=Call It The Blues
TTITLE12=Cool Fantasy Part 1
TTITLE13=Cool Fantasy Part 2
TTITLE14=McGhee Special
TTITLE15=Sweet Potato
TTITLE16=Hoggin'
TTITLE17=Blues A La King
TTITLE18=Night Mist
EXTD=YEAR: 2008
EXTT0=
EXTT1=
EXTT2=
EXTT3=
EXTT4=
EXTT5=
EXTT6=
EXTT7=
EXTT8=
EXTT9=
EXTT10=
EXTT11=
EXTT12=
EXTT13=
EXTT14=
EXTT15=
EXTT16=
EXTT17=
EXTT18=
PLAYORDER=
